<svg width="32" height="32" viewBox="0 0 32 32" fill="none" xmlns="http://www.w3.org/2000/svg">
<rect x="7.28613" y="18.7607" width="1.0957" height="4.98047" rx="0.547852" stroke="#22D3EE" stroke-width="1.0957"/>
<rect x="11.4199" y="16.0713" width="1.0957" height="10.459" rx="0.547852" stroke="#22D3EE" stroke-width="1.0957"/>
<rect x="16.1016" y="12.1865" width="1.0957" height="18.9258" rx="0.547852" stroke="#22D3EE" stroke-width="1.0957"/>
<rect x="20.0859" y="17.7646" width="1.0957" height="7.07227" rx="0.547852" stroke="#22D3EE" stroke-width="1.0957"/>
<rect x="23.9209" y="15.9219" width="1.0957" height="11.2559" rx="0.547852" stroke="#22D3EE" stroke-width="1.0957"/>
<mask id="path-6-inside-1_26_23" fill="white">
<path d="M16.1514 1.42871C21.3501 1.42871 25.5645 5.64309 25.5645 10.8418C25.5645 11.4469 25.0739 11.9375 24.4688 11.9375C23.8636 11.9375 23.373 11.4469 23.373 10.8418C23.373 6.85337 20.1398 3.62012 16.1514 3.62012C12.1629 3.62012 8.92969 6.85337 8.92969 10.8418C8.92969 11.4469 8.43912 11.9375 7.83398 11.9375C7.22884 11.9375 6.73828 11.4469 6.73828 10.8418C6.73828 5.64309 10.9527 1.42871 16.1514 1.42871Z"/>
</mask>
<path d="M16.1514 1.42871V6.42871C18.5886 6.42871 20.5645 8.40452 20.5645 10.8418H25.5645H30.5645C30.5645 2.88167 24.1115 -3.57129 16.1514 -3.57129V1.42871ZM25.5645 10.8418H20.5645C20.5645 8.68551 22.3125 6.9375 24.4688 6.9375V11.9375V16.9375C27.8353 16.9375 30.5645 14.2084 30.5645 10.8418H25.5645ZM24.4688 11.9375V6.9375C26.625 6.9375 28.373 8.68551 28.373 10.8418H23.373H18.373C18.373 14.2084 21.1022 16.9375 24.4688 16.9375V11.9375ZM23.373 10.8418H28.373C28.373 4.09195 22.9012 -1.37988 16.1514 -1.37988V3.62012V8.62012C17.3784 8.62012 18.373 9.6148 18.373 10.8418H23.373ZM16.1514 3.62012V-1.37988C9.40152 -1.37988 3.92969 4.09195 3.92969 10.8418H8.92969H13.9297C13.9297 9.6148 14.9244 8.62012 16.1514 8.62012V3.62012ZM8.92969 10.8418H3.92969C3.92969 8.68551 5.6777 6.9375 7.83398 6.9375V11.9375V16.9375C11.2005 16.9375 13.9297 14.2084 13.9297 10.8418H8.92969ZM7.83398 11.9375V6.9375C9.99027 6.9375 11.7383 8.68551 11.7383 10.8418H6.73828H1.73828C1.73828 14.2084 4.46742 16.9375 7.83398 16.9375V11.9375ZM6.73828 10.8418H11.7383C11.7383 8.40452 13.7141 6.42871 16.1514 6.42871V1.42871V-3.57129C8.19124 -3.57129 1.73828 2.88167 1.73828 10.8418H6.73828Z" fill="#22D3EE" mask="url(#path-6-inside-1_26_23)"/>
</svg>
