<svg width="365" height="86" viewBox="0 0 365 86" fill="none" xmlns="http://www.w3.org/2000/svg">
<g clip-path="url(#clip0_24_3)">
<path d="M118.876 63V33.9091H129.785C132.02 33.9091 133.895 34.2973 135.41 35.0739C136.935 35.8504 138.085 36.9394 138.862 38.3409C139.648 39.733 140.041 41.357 140.041 43.2131C140.041 45.0786 139.643 46.6979 138.848 48.071C138.062 49.4347 136.902 50.4905 135.368 51.2386C133.834 51.9773 131.949 52.3466 129.714 52.3466H121.944V47.9716H129.004C130.311 47.9716 131.381 47.7917 132.214 47.4318C133.048 47.0625 133.663 46.5275 134.061 45.8267C134.468 45.1165 134.672 44.2453 134.672 43.2131C134.672 42.1809 134.468 41.3002 134.061 40.571C133.654 39.8324 133.033 39.2737 132.2 38.8949C131.367 38.5066 130.292 38.3125 128.976 38.3125H124.146V63H118.876ZM133.905 49.8182L141.106 63H135.226L128.152 49.8182H133.905ZM154.011 63.4261C151.824 63.4261 149.934 62.9716 148.343 62.0625C146.762 61.1439 145.545 59.8466 144.693 58.1705C143.841 56.4848 143.414 54.5009 143.414 52.2188C143.414 49.9744 143.841 48.0047 144.693 46.3097C145.555 44.6051 146.757 43.2794 148.301 42.3324C149.844 41.3759 151.658 40.8977 153.741 40.8977C155.086 40.8977 156.355 41.1155 157.548 41.5511C158.751 41.9773 159.811 42.6402 160.73 43.5398C161.658 44.4394 162.387 45.5852 162.917 46.9773C163.448 48.3598 163.713 50.0076 163.713 51.9205V53.4972H145.829V50.0312H158.784C158.774 49.0464 158.561 48.1705 158.145 47.4034C157.728 46.6269 157.146 46.0161 156.397 45.571C155.659 45.1259 154.797 44.9034 153.812 44.9034C152.761 44.9034 151.838 45.1591 151.042 45.6705C150.247 46.1723 149.627 46.8352 149.182 47.6591C148.746 48.4735 148.523 49.3684 148.514 50.3438V53.3693C148.514 54.6383 148.746 55.7273 149.21 56.6364C149.674 57.536 150.323 58.2273 151.156 58.7102C151.989 59.1837 152.965 59.4205 154.082 59.4205C154.83 59.4205 155.507 59.3163 156.113 59.108C156.719 58.8902 157.245 58.5729 157.69 58.1562C158.135 57.7396 158.471 57.2235 158.699 56.608L163.5 57.1477C163.197 58.4167 162.619 59.5246 161.767 60.4716C160.924 61.4091 159.844 62.1383 158.528 62.6591C157.212 63.1705 155.706 63.4261 154.011 63.4261ZM168.063 63V41.1818H172.978V44.8892H173.233C173.688 43.6392 174.441 42.6638 175.492 41.9631C176.543 41.2528 177.798 40.8977 179.256 40.8977C180.733 40.8977 181.979 41.2576 182.992 41.9773C184.015 42.6875 184.734 43.6581 185.151 44.8892H185.378C185.861 43.6771 186.676 42.7112 187.821 41.9915C188.977 41.2623 190.345 40.8977 191.927 40.8977C193.934 40.8977 195.572 41.5322 196.841 42.8011C198.11 44.0701 198.745 45.9214 198.745 48.3551V63H193.588V49.1506C193.588 47.7964 193.229 46.8068 192.509 46.1818C191.789 45.5473 190.909 45.2301 189.867 45.2301C188.626 45.2301 187.656 45.6184 186.955 46.3949C186.264 47.1619 185.918 48.161 185.918 49.392V63H180.875V48.9375C180.875 47.8106 180.535 46.911 179.853 46.2386C179.18 45.5663 178.3 45.2301 177.211 45.2301C176.472 45.2301 175.8 45.4195 175.194 45.7983C174.588 46.1676 174.105 46.6932 173.745 47.375C173.385 48.0473 173.205 48.8333 173.205 49.733V63H168.063ZM209.103 50.2159V63H203.961V41.1818H208.876V44.8892H209.132C209.634 43.6676 210.434 42.697 211.532 41.9773C212.64 41.2576 214.009 40.8977 215.638 40.8977C217.143 40.8977 218.455 41.2197 219.572 41.8636C220.699 42.5076 221.57 43.4403 222.186 44.6619C222.811 45.8835 223.119 47.3655 223.109 49.108V63H217.967V49.9034C217.967 48.4451 217.588 47.304 216.831 46.4801C216.083 45.6562 215.046 45.2443 213.72 45.2443C212.82 45.2443 212.02 45.4432 211.319 45.8409C210.628 46.2292 210.084 46.7926 209.686 47.5312C209.298 48.2699 209.103 49.1648 209.103 50.2159ZM234.615 63.4403C233.232 63.4403 231.987 63.1941 230.879 62.7017C229.78 62.1998 228.909 61.4612 228.265 60.4858C227.631 59.5104 227.314 58.3078 227.314 56.8778C227.314 55.6468 227.541 54.6288 227.995 53.8239C228.45 53.0189 229.07 52.375 229.856 51.892C230.642 51.4091 231.528 51.0445 232.513 50.7983C233.507 50.5426 234.534 50.358 235.595 50.2443C236.873 50.1117 237.91 49.9934 238.706 49.8892C239.501 49.7756 240.079 49.6051 240.439 49.3778C240.808 49.1411 240.993 48.7765 240.993 48.2841V48.1989C240.993 47.1288 240.675 46.3002 240.041 45.7131C239.406 45.1259 238.493 44.8324 237.299 44.8324C236.04 44.8324 235.041 45.107 234.302 45.6562C233.573 46.2055 233.081 46.8542 232.825 47.6023L228.024 46.9205C228.403 45.5947 229.028 44.4867 229.899 43.5966C230.77 42.697 231.835 42.0246 233.095 41.5795C234.354 41.125 235.746 40.8977 237.271 40.8977C238.322 40.8977 239.369 41.0208 240.41 41.267C241.452 41.5133 242.404 41.9205 243.265 42.4886C244.127 43.0473 244.818 43.8097 245.339 44.7756C245.87 45.7415 246.135 46.9489 246.135 48.3977V63H241.191V60.0028H241.021C240.709 60.6089 240.268 61.1771 239.7 61.7074C239.141 62.2282 238.436 62.6496 237.584 62.9716C236.741 63.2841 235.751 63.4403 234.615 63.4403ZM235.95 59.6619C236.982 59.6619 237.877 59.4583 238.635 59.0511C239.392 58.6345 239.975 58.0852 240.382 57.4034C240.798 56.7216 241.007 55.9782 241.007 55.1733V52.6023C240.846 52.7348 240.571 52.858 240.183 52.9716C239.804 53.0852 239.378 53.1847 238.905 53.2699C238.431 53.3551 237.962 53.4309 237.498 53.4972C237.034 53.5634 236.632 53.6203 236.291 53.6676C235.524 53.7718 234.837 53.9422 234.231 54.179C233.625 54.4157 233.147 54.7472 232.797 55.1733C232.446 55.59 232.271 56.1297 232.271 56.7926C232.271 57.7396 232.617 58.4545 233.308 58.9375C233.999 59.4205 234.88 59.6619 235.95 59.6619ZM268.549 46.9489L263.862 47.4602C263.729 46.9867 263.497 46.5417 263.166 46.125C262.844 45.7083 262.408 45.3722 261.859 45.1165C261.31 44.8608 260.638 44.733 259.842 44.733C258.772 44.733 257.872 44.965 257.143 45.429C256.423 45.893 256.068 46.4943 256.078 47.233C256.068 47.8674 256.3 48.3835 256.774 48.7812C257.257 49.179 258.052 49.5057 259.16 49.7614L262.882 50.5568C264.946 51.0019 266.48 51.7074 267.484 52.6733C268.497 53.6392 269.009 54.9034 269.018 56.4659C269.009 57.839 268.606 59.0511 267.811 60.1023C267.025 61.1439 265.931 61.9583 264.53 62.5455C263.128 63.1326 261.518 63.4261 259.7 63.4261C257.03 63.4261 254.88 62.8674 253.251 61.75C251.622 60.6231 250.652 59.0559 250.339 57.0483L255.353 56.5653C255.581 57.5502 256.064 58.2936 256.802 58.7955C257.541 59.2973 258.502 59.5483 259.686 59.5483C260.907 59.5483 261.888 59.2973 262.626 58.7955C263.374 58.2936 263.748 57.6733 263.748 56.9347C263.748 56.3097 263.507 55.7936 263.024 55.3864C262.55 54.9792 261.812 54.6667 260.808 54.4489L257.086 53.6676C254.994 53.232 253.445 52.4981 252.441 51.4659C251.438 50.4242 250.941 49.108 250.95 47.517C250.941 46.1723 251.305 45.0076 252.044 44.0227C252.792 43.0284 253.829 42.2614 255.155 41.7216C256.49 41.1723 258.029 40.8977 259.771 40.8977C262.328 40.8977 264.34 41.4422 265.808 42.5312C267.285 43.6203 268.199 45.0928 268.549 46.9489ZM278.4 50.2159V63H273.258V33.9091H278.287V44.8892H278.542C279.054 43.6581 279.844 42.6875 280.914 41.9773C281.994 41.2576 283.367 40.8977 285.034 40.8977C286.549 40.8977 287.87 41.215 288.997 41.8494C290.124 42.4839 290.995 43.4119 291.611 44.6335C292.236 45.8551 292.548 47.3466 292.548 49.108V63H287.406V49.9034C287.406 48.4356 287.027 47.2945 286.27 46.4801C285.521 45.6562 284.47 45.2443 283.116 45.2443C282.207 45.2443 281.393 45.4432 280.673 45.8409C279.963 46.2292 279.404 46.7926 278.997 47.5312C278.599 48.2699 278.4 49.1648 278.4 50.2159ZM307.307 63.4261C305.176 63.4261 303.329 62.9574 301.767 62.0199C300.204 61.0824 298.992 59.7708 298.13 58.0852C297.278 56.3996 296.852 54.4299 296.852 52.1761C296.852 49.9223 297.278 47.9479 298.13 46.2528C298.992 44.5578 300.204 43.2415 301.767 42.304C303.329 41.3665 305.176 40.8977 307.307 40.8977C309.437 40.8977 311.284 41.3665 312.846 42.304C314.409 43.2415 315.616 44.5578 316.468 46.2528C317.33 47.9479 317.761 49.9223 317.761 52.1761C317.761 54.4299 317.33 56.3996 316.468 58.0852C315.616 59.7708 314.409 61.0824 312.846 62.0199C311.284 62.9574 309.437 63.4261 307.307 63.4261ZM307.335 59.3068C308.49 59.3068 309.456 58.9896 310.233 58.3551C311.009 57.7112 311.587 56.8494 311.966 55.7699C312.354 54.6903 312.548 53.4877 312.548 52.1619C312.548 50.8267 312.354 49.6193 311.966 48.5398C311.587 47.4508 311.009 46.5843 310.233 45.9403C309.456 45.2964 308.49 44.9744 307.335 44.9744C306.151 44.9744 305.166 45.2964 304.38 45.9403C303.604 46.5843 303.021 47.4508 302.633 48.5398C302.254 49.6193 302.065 50.8267 302.065 52.1619C302.065 53.4877 302.254 54.6903 302.633 55.7699C303.021 56.8494 303.604 57.7112 304.38 58.3551C305.166 58.9896 306.151 59.3068 307.335 59.3068ZM322.125 71.1818V41.1818H327.182V44.7898H327.481C327.746 44.2595 328.12 43.696 328.603 43.0994C329.086 42.4934 329.739 41.9773 330.563 41.5511C331.387 41.1155 332.438 40.8977 333.716 40.8977C335.402 40.8977 336.922 41.3286 338.276 42.1903C339.64 43.0426 340.719 44.3068 341.515 45.983C342.32 47.6496 342.722 49.6951 342.722 52.1193C342.722 54.5152 342.329 56.5511 341.543 58.2273C340.757 59.9034 339.687 61.1818 338.333 62.0625C336.979 62.9432 335.445 63.3835 333.731 63.3835C332.481 63.3835 331.444 63.1752 330.62 62.7585C329.796 62.3419 329.133 61.84 328.631 61.2528C328.139 60.6562 327.755 60.0928 327.481 59.5625H327.267V71.1818H322.125ZM327.168 52.0909C327.168 53.5019 327.367 54.7377 327.765 55.7983C328.172 56.8589 328.754 57.6875 329.512 58.2841C330.279 58.8712 331.207 59.1648 332.296 59.1648C333.432 59.1648 334.384 58.8617 335.151 58.2557C335.918 57.6402 336.496 56.8021 336.884 55.7415C337.282 54.6714 337.481 53.4545 337.481 52.0909C337.481 50.7367 337.286 49.5341 336.898 48.483C336.51 47.4318 335.932 46.608 335.165 46.0114C334.398 45.4148 333.442 45.1165 332.296 45.1165C331.197 45.1165 330.265 45.4053 329.498 45.983C328.731 46.5606 328.148 47.3703 327.75 48.4119C327.362 49.4536 327.168 50.6799 327.168 52.0909Z" fill="white"/>
<path d="M32.4586 18.4712H72.5065C76.4016 18.4714 79.6484 21.4534 79.9791 25.3345L83.6842 68.8071C84.0572 73.1845 80.6048 76.9436 76.2115 76.9438H28.7535C24.3601 76.9438 20.9078 73.1847 21.2809 68.8071L24.986 25.3345C25.3167 21.4533 28.5634 18.4712 32.4586 18.4712Z" stroke="#22D3EE"/>
<rect x="32.6749" y="41.9668" width="2.46017" height="11.2013" rx="1.23009" stroke="#22D3EE" stroke-width="2.46017"/>
<rect x="41.9565" y="35.9199" width="2.46017" height="23.519" rx="1.23009" stroke="#22D3EE" stroke-width="2.46017"/>
<rect x="52.4682" y="27.1858" width="2.46017" height="42.5555" rx="1.23009" stroke="#22D3EE" stroke-width="2.46017"/>
<rect x="61.4143" y="39.7274" width="2.46017" height="15.9044" rx="1.23009" stroke="#22D3EE" stroke-width="2.46017"/>
<rect x="70.0249" y="35.5842" width="2.46017" height="25.3107" rx="1.23009" stroke="#22D3EE" stroke-width="2.46017"/>
<mask id="path-8-inside-1_24_3" fill="white">
<path d="M52.58 3C64.2526 3 73.7151 12.4755 73.7151 24.1641C73.7151 25.5246 72.6136 26.6276 71.2549 26.6276C69.8962 26.6276 68.7947 25.5246 68.7947 24.1641C68.7947 15.1966 61.5351 7.92708 52.58 7.92708C43.6248 7.92708 36.3652 15.1966 36.3652 24.1641C36.3652 25.5246 35.2637 26.6276 33.905 26.6276C32.5463 26.6276 31.4449 25.5246 31.4449 24.1641C31.4449 12.4755 40.9074 3 52.58 3Z"/>
</mask>
<path d="M52.58 3V8C61.4847 8 68.7151 15.2304 68.7151 24.1641H73.7151H78.7151C78.7151 9.7205 67.0204 -2 52.58 -2V3ZM73.7151 24.1641H68.7151C68.7151 22.7697 69.8457 21.6276 71.2549 21.6276V26.6276V31.6276C75.3815 31.6276 78.7151 28.2796 78.7151 24.1641H73.7151ZM71.2549 26.6276V21.6276C72.6641 21.6276 73.7947 22.7697 73.7947 24.1641H68.7947H63.7947C63.7947 28.2796 67.1283 31.6276 71.2549 31.6276V26.6276ZM68.7947 24.1641H73.7947C73.7947 12.4417 64.303 2.92708 52.58 2.92708V7.92708V12.9271C58.7673 12.9271 63.7947 17.9516 63.7947 24.1641H68.7947ZM52.58 7.92708V2.92708C40.8569 2.92708 31.3652 12.4417 31.3652 24.1641H36.3652H41.3652C41.3652 17.9516 46.3927 12.9271 52.58 12.9271V7.92708ZM36.3652 24.1641H31.3652C31.3652 22.7697 32.4959 21.6276 33.905 21.6276V26.6276V31.6276C38.0316 31.6276 41.3652 28.2796 41.3652 24.1641H36.3652ZM33.905 26.6276V21.6276C35.3142 21.6276 36.4449 22.7697 36.4449 24.1641H31.4449H26.4449C26.4449 28.2796 29.7784 31.6276 33.905 31.6276V26.6276ZM31.4449 24.1641H36.4449C36.4449 15.2304 43.6752 8 52.58 8V3V-2C38.1395 -2 26.4449 9.7205 26.4449 24.1641H31.4449Z" fill="#22D3EE" mask="url(#path-8-inside-1_24_3)"/>
</g>
<defs>
<clipPath id="clip0_24_3">
<rect width="365" height="86" fill="white"/>
</clipPath>
</defs>
</svg>
