<svg width="398" height="86" viewBox="0 0 398 86" fill="none" xmlns="http://www.w3.org/2000/svg">
<g clip-path="url(#clip0_24_3)">
<path d="M106.857 61V26.0909H119.948C122.63 26.0909 124.88 26.5568 126.698 27.4886C128.528 28.4205 129.908 29.7273 130.84 31.4091C131.783 33.0795 132.255 35.0284 132.255 37.2557C132.255 39.4943 131.778 41.4375 130.823 43.0852C129.88 44.7216 128.488 45.9886 126.647 46.8864C124.806 47.7727 122.545 48.2159 119.863 48.2159H110.539V42.9659H119.011C120.579 42.9659 121.863 42.75 122.863 42.3182C123.863 41.875 124.602 41.233 125.079 40.392C125.567 39.5398 125.812 38.4943 125.812 37.2557C125.812 36.017 125.567 34.9602 125.079 34.0852C124.59 33.1989 123.846 32.5284 122.846 32.0739C121.846 31.608 120.556 31.375 118.977 31.375H113.181V61H106.857ZM124.891 45.1818L133.533 61H126.477L117.988 45.1818H124.891ZM149.019 61.5114C146.394 61.5114 144.127 60.9659 142.218 59.875C140.32 58.7727 138.86 57.2159 137.837 55.2045C136.815 53.1818 136.303 50.8011 136.303 48.0625C136.303 45.3693 136.815 43.0057 137.837 40.9716C138.871 38.9261 140.315 37.3352 142.167 36.1989C144.019 35.0511 146.195 34.4773 148.695 34.4773C150.309 34.4773 151.832 34.7386 153.263 35.2614C154.707 35.7727 155.979 36.5682 157.082 37.6477C158.195 38.7273 159.07 40.1023 159.707 41.7727C160.343 43.4318 160.661 45.4091 160.661 47.7045V49.5966H139.201V45.4375H154.746C154.735 44.2557 154.479 43.2045 153.979 42.2841C153.479 41.3523 152.781 40.6193 151.883 40.0852C150.996 39.5511 149.962 39.2841 148.781 39.2841C147.519 39.2841 146.411 39.5909 145.457 40.2045C144.502 40.8068 143.758 41.6023 143.224 42.5909C142.701 43.5682 142.434 44.642 142.423 45.8125V49.4432C142.423 50.9659 142.701 52.2727 143.258 53.3636C143.815 54.4432 144.593 55.2727 145.593 55.8523C146.593 56.4205 147.763 56.7045 149.104 56.7045C150.002 56.7045 150.815 56.5795 151.542 56.3295C152.269 56.0682 152.9 55.6875 153.434 55.1875C153.968 54.6875 154.371 54.0682 154.644 53.3295L160.406 53.9773C160.042 55.5 159.349 56.8295 158.326 57.9659C157.315 59.0909 156.019 59.9659 154.44 60.5909C152.86 61.2045 151.053 61.5114 149.019 61.5114ZM165.881 61V34.8182H171.779V39.267H172.086C172.631 37.767 173.535 36.5966 174.796 35.7557C176.058 34.9034 177.563 34.4773 179.313 34.4773C181.086 34.4773 182.58 34.9091 183.796 35.7727C185.023 36.625 185.887 37.7898 186.387 39.267H186.66C187.239 37.8125 188.217 36.6534 189.592 35.7898C190.978 34.9148 192.62 34.4773 194.518 34.4773C196.927 34.4773 198.893 35.2386 200.415 36.7614C201.938 38.2841 202.7 40.5057 202.7 43.4261V61H196.512V44.3807C196.512 42.7557 196.08 41.5682 195.217 40.8182C194.353 40.0568 193.296 39.6761 192.046 39.6761C190.558 39.6761 189.393 40.142 188.552 41.0739C187.722 41.9943 187.308 43.1932 187.308 44.6705V61H181.256V44.125C181.256 42.7727 180.847 41.6932 180.029 40.8864C179.222 40.0795 178.165 39.6761 176.859 39.6761C175.972 39.6761 175.165 39.9034 174.438 40.358C173.711 40.8011 173.131 41.4318 172.7 42.25C172.268 43.0568 172.052 44 172.052 45.0795V61H165.881ZM215.13 45.6591V61H208.96V34.8182H214.857V39.267H215.164C215.766 37.8011 216.727 36.6364 218.045 35.7727C219.374 34.9091 221.016 34.4773 222.971 34.4773C224.778 34.4773 226.352 34.8636 227.692 35.6364C229.045 36.4091 230.09 37.5284 230.829 38.9943C231.579 40.4602 231.948 42.2386 231.937 44.3295V61H225.766V45.2841C225.766 43.5341 225.312 42.1648 224.403 41.1761C223.505 40.1875 222.261 39.6932 220.67 39.6932C219.59 39.6932 218.63 39.9318 217.789 40.4091C216.96 40.875 216.306 41.5511 215.829 42.4375C215.363 43.3239 215.13 44.3977 215.13 45.6591ZM245.744 61.5284C244.085 61.5284 242.59 61.233 241.261 60.642C239.942 60.0398 238.897 59.1534 238.124 57.983C237.363 56.8125 236.982 55.3693 236.982 53.6534C236.982 52.1761 237.255 50.9545 237.8 49.9886C238.346 49.0227 239.09 48.25 240.033 47.6705C240.977 47.0909 242.039 46.6534 243.221 46.358C244.414 46.0511 245.647 45.8295 246.92 45.6932C248.454 45.5341 249.698 45.392 250.653 45.267C251.607 45.1307 252.3 44.9261 252.732 44.6534C253.175 44.3693 253.397 43.9318 253.397 43.3409V43.2386C253.397 41.9545 253.016 40.9602 252.255 40.2557C251.494 39.5511 250.397 39.1989 248.965 39.1989C247.454 39.1989 246.255 39.5284 245.369 40.1875C244.494 40.8466 243.903 41.625 243.596 42.5227L237.835 41.7045C238.289 40.1136 239.039 38.7841 240.085 37.7159C241.13 36.6364 242.408 35.8295 243.92 35.2955C245.431 34.75 247.102 34.4773 248.931 34.4773C250.192 34.4773 251.448 34.625 252.698 34.9205C253.948 35.2159 255.09 35.7045 256.124 36.3864C257.158 37.0568 257.988 37.9716 258.613 39.1307C259.249 40.2898 259.567 41.7386 259.567 43.4773V61H253.636V57.4034H253.431C253.056 58.1307 252.528 58.8125 251.846 59.4489C251.175 60.0739 250.329 60.5795 249.306 60.9659C248.295 61.3409 247.107 61.5284 245.744 61.5284ZM247.346 56.9943C248.585 56.9943 249.658 56.75 250.567 56.2614C251.477 55.7614 252.175 55.1023 252.664 54.2841C253.164 53.4659 253.414 52.5739 253.414 51.608V48.5227C253.221 48.6818 252.891 48.8295 252.425 48.9659C251.971 49.1023 251.46 49.2216 250.891 49.3239C250.323 49.4261 249.761 49.517 249.204 49.5966C248.647 49.6761 248.164 49.7443 247.755 49.8011C246.835 49.9261 246.011 50.1307 245.283 50.4148C244.556 50.6989 243.982 51.0966 243.562 51.608C243.141 52.108 242.931 52.7557 242.931 53.5511C242.931 54.6875 243.346 55.5455 244.175 56.125C245.005 56.7045 246.062 56.9943 247.346 56.9943ZM286.465 41.7386L280.84 42.3523C280.681 41.7841 280.403 41.25 280.005 40.75C279.619 40.25 279.096 39.8466 278.437 39.5398C277.778 39.233 276.971 39.0795 276.016 39.0795C274.732 39.0795 273.653 39.358 272.778 39.9148C271.914 40.4716 271.488 41.1932 271.499 42.0795C271.488 42.8409 271.766 43.4602 272.335 43.9375C272.914 44.4148 273.869 44.8068 275.198 45.1136L279.664 46.0682C282.141 46.6023 283.982 47.4489 285.187 48.608C286.403 49.767 287.016 51.2841 287.028 53.1591C287.016 54.8068 286.533 56.2614 285.579 57.5227C284.636 58.7727 283.323 59.75 281.641 60.4545C279.96 61.1591 278.028 61.5114 275.846 61.5114C272.641 61.5114 270.062 60.8409 268.107 59.5C266.153 58.1477 264.988 56.267 264.613 53.858L270.63 53.2784C270.903 54.4602 271.482 55.3523 272.369 55.9545C273.255 56.5568 274.408 56.858 275.829 56.858C277.295 56.858 278.471 56.5568 279.357 55.9545C280.255 55.3523 280.704 54.608 280.704 53.7216C280.704 52.9716 280.414 52.3523 279.835 51.8636C279.266 51.375 278.38 51 277.175 50.7386L272.71 49.8011C270.198 49.2784 268.34 48.3977 267.136 47.1591C265.931 45.9091 265.335 44.3295 265.346 42.4205C265.335 40.8068 265.772 39.4091 266.658 38.2273C267.556 37.0341 268.8 36.1136 270.391 35.4659C271.994 34.8068 273.84 34.4773 275.931 34.4773C278.999 34.4773 281.414 35.1307 283.175 36.4375C284.948 37.7443 286.045 39.5114 286.465 41.7386ZM298.286 45.6591V61H292.116V26.0909H298.15V39.267H298.457C299.07 37.7898 300.019 36.625 301.303 35.7727C302.599 34.9091 304.246 34.4773 306.246 34.4773C308.065 34.4773 309.65 34.858 311.002 35.6193C312.354 36.3807 313.4 37.4943 314.138 38.9602C314.888 40.4261 315.263 42.2159 315.263 44.3295V61H309.093V45.2841C309.093 43.5227 308.638 42.1534 307.729 41.1761C306.832 40.1875 305.57 39.6932 303.945 39.6932C302.854 39.6932 301.877 39.9318 301.013 40.4091C300.161 40.875 299.491 41.5511 299.002 42.4375C298.525 43.3239 298.286 44.3977 298.286 45.6591ZM332.974 61.5114C330.417 61.5114 328.201 60.9489 326.326 59.8239C324.451 58.6989 322.996 57.125 321.962 55.1023C320.94 53.0795 320.428 50.7159 320.428 48.0114C320.428 45.3068 320.94 42.9375 321.962 40.9034C322.996 38.8693 324.451 37.2898 326.326 36.1648C328.201 35.0398 330.417 34.4773 332.974 34.4773C335.531 34.4773 337.746 35.0398 339.621 36.1648C341.496 37.2898 342.945 38.8693 343.968 40.9034C345.002 42.9375 345.519 45.3068 345.519 48.0114C345.519 50.7159 345.002 53.0795 343.968 55.1023C342.945 57.125 341.496 58.6989 339.621 59.8239C337.746 60.9489 335.531 61.5114 332.974 61.5114ZM333.008 56.5682C334.394 56.5682 335.553 56.1875 336.485 55.4261C337.417 54.6534 338.11 53.6193 338.565 52.3239C339.031 51.0284 339.263 49.5852 339.263 47.9943C339.263 46.392 339.031 44.9432 338.565 43.6477C338.11 42.3409 337.417 41.3011 336.485 40.5284C335.553 39.7557 334.394 39.3693 333.008 39.3693C331.587 39.3693 330.406 39.7557 329.462 40.5284C328.531 41.3011 327.832 42.3409 327.366 43.6477C326.911 44.9432 326.684 46.392 326.684 47.9943C326.684 49.5852 326.911 51.0284 327.366 52.3239C327.832 53.6193 328.531 54.6534 329.462 55.4261C330.406 56.1875 331.587 56.5682 333.008 56.5682ZM350.756 70.8182V34.8182H356.825V39.1477H357.183C357.501 38.5114 357.95 37.8352 358.529 37.1193C359.109 36.392 359.893 35.7727 360.881 35.2614C361.87 34.7386 363.131 34.4773 364.665 34.4773C366.688 34.4773 368.512 34.9943 370.137 36.0284C371.773 37.0511 373.069 38.5682 374.023 40.5795C374.989 42.5795 375.472 45.0341 375.472 47.9432C375.472 50.8182 375.001 53.2614 374.058 55.2727C373.114 57.2841 371.83 58.8182 370.205 59.875C368.58 60.9318 366.739 61.4602 364.683 61.4602C363.183 61.4602 361.938 61.2102 360.95 60.7102C359.961 60.2102 359.165 59.608 358.563 58.9034C357.972 58.1875 357.512 57.5114 357.183 56.875H356.927V70.8182H350.756ZM356.808 47.9091C356.808 49.6023 357.046 51.0852 357.523 52.358C358.012 53.6307 358.711 54.625 359.62 55.3409C360.54 56.0455 361.654 56.3977 362.961 56.3977C364.325 56.3977 365.467 56.0341 366.387 55.3068C367.308 54.5682 368.001 53.5625 368.467 52.2898C368.944 51.0057 369.183 49.5455 369.183 47.9091C369.183 46.2841 368.95 44.8409 368.484 43.5795C368.018 42.3182 367.325 41.3295 366.404 40.6136C365.484 39.8977 364.336 39.5398 362.961 39.5398C361.643 39.5398 360.523 39.8864 359.603 40.5795C358.683 41.2727 357.984 42.2443 357.506 43.4943C357.04 44.7443 356.808 46.2159 356.808 47.9091Z" fill="white"/>
<path d="M32.4586 18.4712H72.5065C76.4016 18.4714 79.6484 21.4534 79.9791 25.3345L83.6842 68.8071C84.0572 73.1845 80.6048 76.9436 76.2115 76.9438H28.7535C24.3601 76.9438 20.9078 73.1847 21.2809 68.8071L24.986 25.3345C25.3167 21.4533 28.5634 18.4712 32.4586 18.4712Z" stroke="#22D3EE"/>
<rect x="32.6749" y="41.9668" width="2.46017" height="11.2013" rx="1.23009" stroke="#22D3EE" stroke-width="2.46017"/>
<rect x="41.9565" y="35.9199" width="2.46017" height="23.519" rx="1.23009" stroke="#22D3EE" stroke-width="2.46017"/>
<rect x="52.4682" y="27.1858" width="2.46017" height="42.5555" rx="1.23009" stroke="#22D3EE" stroke-width="2.46017"/>
<rect x="61.4143" y="39.7274" width="2.46017" height="15.9044" rx="1.23009" stroke="#22D3EE" stroke-width="2.46017"/>
<rect x="70.0249" y="35.5842" width="2.46017" height="25.3107" rx="1.23009" stroke="#22D3EE" stroke-width="2.46017"/>
<mask id="path-8-inside-1_24_3" fill="white">
<path d="M52.58 3C64.2526 3 73.7151 12.4755 73.7151 24.1641C73.7151 25.5246 72.6136 26.6276 71.2549 26.6276C69.8962 26.6276 68.7947 25.5246 68.7947 24.1641C68.7947 15.1966 61.5351 7.92708 52.58 7.92708C43.6248 7.92708 36.3652 15.1966 36.3652 24.1641C36.3652 25.5246 35.2637 26.6276 33.905 26.6276C32.5463 26.6276 31.4449 25.5246 31.4449 24.1641C31.4449 12.4755 40.9074 3 52.58 3Z"/>
</mask>
<path d="M52.58 3V8C61.4847 8 68.7151 15.2304 68.7151 24.1641H73.7151H78.7151C78.7151 9.7205 67.0204 -2 52.58 -2V3ZM73.7151 24.1641H68.7151C68.7151 22.7697 69.8457 21.6276 71.2549 21.6276V26.6276V31.6276C75.3815 31.6276 78.7151 28.2796 78.7151 24.1641H73.7151ZM71.2549 26.6276V21.6276C72.6641 21.6276 73.7947 22.7697 73.7947 24.1641H68.7947H63.7947C63.7947 28.2796 67.1283 31.6276 71.2549 31.6276V26.6276ZM68.7947 24.1641H73.7947C73.7947 12.4417 64.303 2.92708 52.58 2.92708V7.92708V12.9271C58.7673 12.9271 63.7947 17.9516 63.7947 24.1641H68.7947ZM52.58 7.92708V2.92708C40.8569 2.92708 31.3652 12.4417 31.3652 24.1641H36.3652H41.3652C41.3652 17.9516 46.3927 12.9271 52.58 12.9271V7.92708ZM36.3652 24.1641H31.3652C31.3652 22.7697 32.4959 21.6276 33.905 21.6276V26.6276V31.6276C38.0316 31.6276 41.3652 28.2796 41.3652 24.1641H36.3652ZM33.905 26.6276V21.6276C35.3142 21.6276 36.4449 22.7697 36.4449 24.1641H31.4449H26.4449C26.4449 28.2796 29.7784 31.6276 33.905 31.6276V26.6276ZM31.4449 24.1641H36.4449C36.4449 15.2304 43.6752 8 52.58 8V3V-2C38.1395 -2 26.4449 9.7205 26.4449 24.1641H31.4449Z" fill="#22D3EE" mask="url(#path-8-inside-1_24_3)"/>
</g>
<defs>
<clipPath id="clip0_24_3">
<rect width="398" height="86" fill="white"/>
</clipPath>
</defs>
</svg>
