<svg width="398" height="86" viewBox="0 0 398 86" fill="none" xmlns="http://www.w3.org/2000/svg">
<g clip-path="url(#clip0_24_3)">
<path d="M106.857 59V24.0909H119.948C122.63 24.0909 124.88 24.5568 126.698 25.4886C128.528 26.4205 129.908 27.7273 130.84 29.4091C131.783 31.0795 132.255 33.0284 132.255 35.2557C132.255 37.4943 131.778 39.4375 130.823 41.0852C129.88 42.7216 128.488 43.9886 126.647 44.8864C124.806 45.7727 122.545 46.2159 119.863 46.2159H110.539V40.9659H119.011C120.579 40.9659 121.863 40.75 122.863 40.3182C123.863 39.875 124.602 39.233 125.079 38.392C125.567 37.5398 125.812 36.4943 125.812 35.2557C125.812 34.017 125.567 32.9602 125.079 32.0852C124.59 31.1989 123.846 30.5284 122.846 30.0739C121.846 29.608 120.556 29.375 118.977 29.375H113.181V59H106.857ZM124.891 43.1818L133.533 59H126.477L117.988 43.1818H124.891ZM149.019 59.5114C146.394 59.5114 144.127 58.9659 142.218 57.875C140.32 56.7727 138.86 55.2159 137.837 53.2045C136.815 51.1818 136.303 48.8011 136.303 46.0625C136.303 43.3693 136.815 41.0057 137.837 38.9716C138.871 36.9261 140.315 35.3352 142.167 34.1989C144.019 33.0511 146.195 32.4773 148.695 32.4773C150.309 32.4773 151.832 32.7386 153.263 33.2614C154.707 33.7727 155.979 34.5682 157.082 35.6477C158.195 36.7273 159.07 38.1023 159.707 39.7727C160.343 41.4318 160.661 43.4091 160.661 45.7045V47.5966H139.201V43.4375H154.746C154.735 42.2557 154.479 41.2045 153.979 40.2841C153.479 39.3523 152.781 38.6193 151.883 38.0852C150.996 37.5511 149.962 37.2841 148.781 37.2841C147.519 37.2841 146.411 37.5909 145.457 38.2045C144.502 38.8068 143.758 39.6023 143.224 40.5909C142.701 41.5682 142.434 42.642 142.423 43.8125V47.4432C142.423 48.9659 142.701 50.2727 143.258 51.3636C143.815 52.4432 144.593 53.2727 145.593 53.8523C146.593 54.4205 147.763 54.7045 149.104 54.7045C150.002 54.7045 150.815 54.5795 151.542 54.3295C152.269 54.0682 152.9 53.6875 153.434 53.1875C153.968 52.6875 154.371 52.0682 154.644 51.3295L160.406 51.9773C160.042 53.5 159.349 54.8295 158.326 55.9659C157.315 57.0909 156.019 57.9659 154.44 58.5909C152.86 59.2045 151.053 59.5114 149.019 59.5114ZM165.881 59V32.8182H171.779V37.267H172.086C172.631 35.767 173.535 34.5966 174.796 33.7557C176.058 32.9034 177.563 32.4773 179.313 32.4773C181.086 32.4773 182.58 32.9091 183.796 33.7727C185.023 34.625 185.887 35.7898 186.387 37.267H186.66C187.239 35.8125 188.217 34.6534 189.592 33.7898C190.978 32.9148 192.62 32.4773 194.518 32.4773C196.927 32.4773 198.893 33.2386 200.415 34.7614C201.938 36.2841 202.7 38.5057 202.7 41.4261V59H196.512V42.3807C196.512 40.7557 196.08 39.5682 195.217 38.8182C194.353 38.0568 193.296 37.6761 192.046 37.6761C190.558 37.6761 189.393 38.142 188.552 39.0739C187.722 39.9943 187.308 41.1932 187.308 42.6705V59H181.256V42.125C181.256 40.7727 180.847 39.6932 180.029 38.8864C179.222 38.0795 178.165 37.6761 176.859 37.6761C175.972 37.6761 175.165 37.9034 174.438 38.358C173.711 38.8011 173.131 39.4318 172.7 40.25C172.268 41.0568 172.052 42 172.052 43.0795V59H165.881ZM215.13 43.6591V59H208.96V32.8182H214.857V37.267H215.164C215.766 35.8011 216.727 34.6364 218.045 33.7727C219.374 32.9091 221.016 32.4773 222.971 32.4773C224.778 32.4773 226.352 32.8636 227.692 33.6364C229.045 34.4091 230.09 35.5284 230.829 36.9943C231.579 38.4602 231.948 40.2386 231.937 42.3295V59H225.766V43.2841C225.766 41.5341 225.312 40.1648 224.403 39.1761C223.505 38.1875 222.261 37.6932 220.67 37.6932C219.59 37.6932 218.63 37.9318 217.789 38.4091C216.96 38.875 216.306 39.5511 215.829 40.4375C215.363 41.3239 215.13 42.3977 215.13 43.6591ZM245.744 59.5284C244.085 59.5284 242.59 59.233 241.261 58.642C239.942 58.0398 238.897 57.1534 238.124 55.983C237.363 54.8125 236.982 53.3693 236.982 51.6534C236.982 50.1761 237.255 48.9545 237.8 47.9886C238.346 47.0227 239.09 46.25 240.033 45.6705C240.977 45.0909 242.039 44.6534 243.221 44.358C244.414 44.0511 245.647 43.8295 246.92 43.6932C248.454 43.5341 249.698 43.392 250.653 43.267C251.607 43.1307 252.3 42.9261 252.732 42.6534C253.175 42.3693 253.397 41.9318 253.397 41.3409V41.2386C253.397 39.9545 253.016 38.9602 252.255 38.2557C251.494 37.5511 250.397 37.1989 248.965 37.1989C247.454 37.1989 246.255 37.5284 245.369 38.1875C244.494 38.8466 243.903 39.625 243.596 40.5227L237.835 39.7045C238.289 38.1136 239.039 36.7841 240.085 35.7159C241.13 34.6364 242.408 33.8295 243.92 33.2955C245.431 32.75 247.102 32.4773 248.931 32.4773C250.192 32.4773 251.448 32.625 252.698 32.9205C253.948 33.2159 255.09 33.7045 256.124 34.3864C257.158 35.0568 257.988 35.9716 258.613 37.1307C259.249 38.2898 259.567 39.7386 259.567 41.4773V59H253.636V55.4034H253.431C253.056 56.1307 252.528 56.8125 251.846 57.4489C251.175 58.0739 250.329 58.5795 249.306 58.9659C248.295 59.3409 247.107 59.5284 245.744 59.5284ZM247.346 54.9943C248.585 54.9943 249.658 54.75 250.567 54.2614C251.477 53.7614 252.175 53.1023 252.664 52.2841C253.164 51.4659 253.414 50.5739 253.414 49.608V46.5227C253.221 46.6818 252.891 46.8295 252.425 46.9659C251.971 47.1023 251.46 47.2216 250.891 47.3239C250.323 47.4261 249.761 47.517 249.204 47.5966C248.647 47.6761 248.164 47.7443 247.755 47.8011C246.835 47.9261 246.011 48.1307 245.283 48.4148C244.556 48.6989 243.982 49.0966 243.562 49.608C243.141 50.108 242.931 50.7557 242.931 51.5511C242.931 52.6875 243.346 53.5455 244.175 54.125C245.005 54.7045 246.062 54.9943 247.346 54.9943ZM286.465 39.7386L280.84 40.3523C280.681 39.7841 280.403 39.25 280.005 38.75C279.619 38.25 279.096 37.8466 278.437 37.5398C277.778 37.233 276.971 37.0795 276.016 37.0795C274.732 37.0795 273.653 37.358 272.778 37.9148C271.914 38.4716 271.488 39.1932 271.499 40.0795C271.488 40.8409 271.766 41.4602 272.335 41.9375C272.914 42.4148 273.869 42.8068 275.198 43.1136L279.664 44.0682C282.141 44.6023 283.982 45.4489 285.187 46.608C286.403 47.767 287.016 49.2841 287.028 51.1591C287.016 52.8068 286.533 54.2614 285.579 55.5227C284.636 56.7727 283.323 57.75 281.641 58.4545C279.96 59.1591 278.028 59.5114 275.846 59.5114C272.641 59.5114 270.062 58.8409 268.107 57.5C266.153 56.1477 264.988 54.267 264.613 51.858L270.63 51.2784C270.903 52.4602 271.482 53.3523 272.369 53.9545C273.255 54.5568 274.408 54.858 275.829 54.858C277.295 54.858 278.471 54.5568 279.357 53.9545C280.255 53.3523 280.704 52.608 280.704 51.7216C280.704 50.9716 280.414 50.3523 279.835 49.8636C279.266 49.375 278.38 49 277.175 48.7386L272.71 47.8011C270.198 47.2784 268.34 46.3977 267.136 45.1591C265.931 43.9091 265.335 42.3295 265.346 40.4205C265.335 38.8068 265.772 37.4091 266.658 36.2273C267.556 35.0341 268.8 34.1136 270.391 33.4659C271.994 32.8068 273.84 32.4773 275.931 32.4773C278.999 32.4773 281.414 33.1307 283.175 34.4375C284.948 35.7443 286.045 37.5114 286.465 39.7386ZM298.286 43.6591V59H292.116V24.0909H298.15V37.267H298.457C299.07 35.7898 300.019 34.625 301.303 33.7727C302.599 32.9091 304.246 32.4773 306.246 32.4773C308.065 32.4773 309.65 32.858 311.002 33.6193C312.354 34.3807 313.4 35.4943 314.138 36.9602C314.888 38.4261 315.263 40.2159 315.263 42.3295V59H309.093V43.2841C309.093 41.5227 308.638 40.1534 307.729 39.1761C306.832 38.1875 305.57 37.6932 303.945 37.6932C302.854 37.6932 301.877 37.9318 301.013 38.4091C300.161 38.875 299.491 39.5511 299.002 40.4375C298.525 41.3239 298.286 42.3977 298.286 43.6591ZM332.974 59.5114C330.417 59.5114 328.201 58.9489 326.326 57.8239C324.451 56.6989 322.996 55.125 321.962 53.1023C320.94 51.0795 320.428 48.7159 320.428 46.0114C320.428 43.3068 320.94 40.9375 321.962 38.9034C322.996 36.8693 324.451 35.2898 326.326 34.1648C328.201 33.0398 330.417 32.4773 332.974 32.4773C335.531 32.4773 337.746 33.0398 339.621 34.1648C341.496 35.2898 342.945 36.8693 343.968 38.9034C345.002 40.9375 345.519 43.3068 345.519 46.0114C345.519 48.7159 345.002 51.0795 343.968 53.1023C342.945 55.125 341.496 56.6989 339.621 57.8239C337.746 58.9489 335.531 59.5114 332.974 59.5114ZM333.008 54.5682C334.394 54.5682 335.553 54.1875 336.485 53.4261C337.417 52.6534 338.11 51.6193 338.565 50.3239C339.031 49.0284 339.263 47.5852 339.263 45.9943C339.263 44.392 339.031 42.9432 338.565 41.6477C338.11 40.3409 337.417 39.3011 336.485 38.5284C335.553 37.7557 334.394 37.3693 333.008 37.3693C331.587 37.3693 330.406 37.7557 329.462 38.5284C328.531 39.3011 327.832 40.3409 327.366 41.6477C326.911 42.9432 326.684 44.392 326.684 45.9943C326.684 47.5852 326.911 49.0284 327.366 50.3239C327.832 51.6193 328.531 52.6534 329.462 53.4261C330.406 54.1875 331.587 54.5682 333.008 54.5682ZM350.756 68.8182V32.8182H356.825V37.1477H357.183C357.501 36.5114 357.95 35.8352 358.529 35.1193C359.109 34.392 359.893 33.7727 360.881 33.2614C361.87 32.7386 363.131 32.4773 364.665 32.4773C366.688 32.4773 368.512 32.9943 370.137 34.0284C371.773 35.0511 373.069 36.5682 374.023 38.5795C374.989 40.5795 375.472 43.0341 375.472 45.9432C375.472 48.8182 375.001 51.2614 374.058 53.2727C373.114 55.2841 371.83 56.8182 370.205 57.875C368.58 58.9318 366.739 59.4602 364.683 59.4602C363.183 59.4602 361.938 59.2102 360.95 58.7102C359.961 58.2102 359.165 57.608 358.563 56.9034C357.972 56.1875 357.512 55.5114 357.183 54.875H356.927V68.8182H350.756ZM356.808 45.9091C356.808 47.6023 357.046 49.0852 357.523 50.358C358.012 51.6307 358.711 52.625 359.62 53.3409C360.54 54.0455 361.654 54.3977 362.961 54.3977C364.325 54.3977 365.467 54.0341 366.387 53.3068C367.308 52.5682 368.001 51.5625 368.467 50.2898C368.944 49.0057 369.183 47.5455 369.183 45.9091C369.183 44.2841 368.95 42.8409 368.484 41.5795C368.018 40.3182 367.325 39.3295 366.404 38.6136C365.484 37.8977 364.336 37.5398 362.961 37.5398C361.643 37.5398 360.523 37.8864 359.603 38.5795C358.683 39.2727 357.984 40.2443 357.506 41.4943C357.04 42.7443 356.808 44.2159 356.808 45.9091Z" fill="white"/>
<path d="M32.4586 18.4712H72.5065C76.4016 18.4714 79.6484 21.4534 79.9791 25.3345L83.6842 68.8071C84.0572 73.1845 80.6048 76.9436 76.2115 76.9438H28.7535C24.3601 76.9438 20.9078 73.1847 21.2809 68.8071L24.986 25.3345C25.3167 21.4533 28.5634 18.4712 32.4586 18.4712Z" stroke="#22D3EE"/>
<rect x="32.6749" y="41.9668" width="2.46017" height="11.2013" rx="1.23009" stroke="#22D3EE" stroke-width="2.46017"/>
<rect x="41.9565" y="35.9199" width="2.46017" height="23.519" rx="1.23009" stroke="#22D3EE" stroke-width="2.46017"/>
<rect x="52.4682" y="27.1858" width="2.46017" height="42.5555" rx="1.23009" stroke="#22D3EE" stroke-width="2.46017"/>
<rect x="61.4143" y="39.7274" width="2.46017" height="15.9044" rx="1.23009" stroke="#22D3EE" stroke-width="2.46017"/>
<rect x="70.0249" y="35.5842" width="2.46017" height="25.3107" rx="1.23009" stroke="#22D3EE" stroke-width="2.46017"/>
<mask id="path-8-inside-1_24_3" fill="white">
<path d="M52.58 3C64.2526 3 73.7151 12.4755 73.7151 24.1641C73.7151 25.5246 72.6136 26.6276 71.2549 26.6276C69.8962 26.6276 68.7947 25.5246 68.7947 24.1641C68.7947 15.1966 61.5351 7.92708 52.58 7.92708C43.6248 7.92708 36.3652 15.1966 36.3652 24.1641C36.3652 25.5246 35.2637 26.6276 33.905 26.6276C32.5463 26.6276 31.4449 25.5246 31.4449 24.1641C31.4449 12.4755 40.9074 3 52.58 3Z"/>
</mask>
<path d="M52.58 3V8C61.4847 8 68.7151 15.2304 68.7151 24.1641H73.7151H78.7151C78.7151 9.7205 67.0204 -2 52.58 -2V3ZM73.7151 24.1641H68.7151C68.7151 22.7697 69.8457 21.6276 71.2549 21.6276V26.6276V31.6276C75.3815 31.6276 78.7151 28.2796 78.7151 24.1641H73.7151ZM71.2549 26.6276V21.6276C72.6641 21.6276 73.7947 22.7697 73.7947 24.1641H68.7947H63.7947C63.7947 28.2796 67.1283 31.6276 71.2549 31.6276V26.6276ZM68.7947 24.1641H73.7947C73.7947 12.4417 64.303 2.92708 52.58 2.92708V7.92708V12.9271C58.7673 12.9271 63.7947 17.9516 63.7947 24.1641H68.7947ZM52.58 7.92708V2.92708C40.8569 2.92708 31.3652 12.4417 31.3652 24.1641H36.3652H41.3652C41.3652 17.9516 46.3927 12.9271 52.58 12.9271V7.92708ZM36.3652 24.1641H31.3652C31.3652 22.7697 32.4959 21.6276 33.905 21.6276V26.6276V31.6276C38.0316 31.6276 41.3652 28.2796 41.3652 24.1641H36.3652ZM33.905 26.6276V21.6276C35.3142 21.6276 36.4449 22.7697 36.4449 24.1641H31.4449H26.4449C26.4449 28.2796 29.7784 31.6276 33.905 31.6276V26.6276ZM31.4449 24.1641H36.4449C36.4449 15.2304 43.6752 8 52.58 8V3V-2C38.1395 -2 26.4449 9.7205 26.4449 24.1641H31.4449Z" fill="#22D3EE" mask="url(#path-8-inside-1_24_3)"/>
</g>
<defs>
<clipPath id="clip0_24_3">
<rect width="398" height="86" fill="white"/>
</clipPath>
</defs>
</svg>
