<svg width="102" height="24" viewBox="0 0 102 24" fill="none" xmlns="http://www.w3.org/2000/svg">
<g clip-path="url(#clip0_24_3)">
<path d="M27.7404 17V8.27273H30.6893C31.3711 8.27273 31.9308 8.3892 32.3683 8.62216C32.8058 8.85227 33.1296 9.16903 33.3398 9.57244C33.5501 9.97585 33.6552 10.4347 33.6552 10.9489C33.6552 11.4631 33.5501 11.919 33.3398 12.3168C33.1296 12.7145 32.8072 13.027 32.3725 13.2543C31.9379 13.4787 31.3825 13.5909 30.7063 13.5909H28.32V12.6364H30.6722C31.1381 12.6364 31.5131 12.5682 31.7972 12.4318C32.0842 12.2955 32.2915 12.1023 32.4194 11.8523C32.5501 11.5994 32.6154 11.2983 32.6154 10.9489C32.6154 10.5994 32.5501 10.294 32.4194 10.0327C32.2887 9.77131 32.0799 9.5696 31.793 9.42756C31.506 9.28267 31.1268 9.21023 30.6552 9.21023H28.7972V17H27.7404ZM31.8484 13.0795L33.9961 17H32.7688L30.6552 13.0795H31.8484ZM37.9538 17.1364C37.3232 17.1364 36.7791 16.9972 36.3217 16.7188C35.8672 16.4375 35.5163 16.0455 35.2692 15.5426C35.0249 15.0369 34.9027 14.4489 34.9027 13.7784C34.9027 13.108 35.0249 12.517 35.2692 12.0057C35.5163 11.4915 35.8601 11.0909 36.3004 10.804C36.7436 10.5142 37.2607 10.3693 37.8516 10.3693C38.1925 10.3693 38.5291 10.4261 38.8615 10.5398C39.1939 10.6534 39.4964 10.8381 39.7692 11.0938C40.0419 11.3466 40.2592 11.6818 40.4212 12.0994C40.5831 12.517 40.6641 13.0312 40.6641 13.642V14.0682H35.6186V13.1989H39.6413C39.6413 12.8295 39.5675 12.5 39.4197 12.2102C39.2749 11.9205 39.0675 11.6918 38.7976 11.5241C38.5305 11.3565 38.2152 11.2727 37.8516 11.2727C37.451 11.2727 37.1044 11.3722 36.8118 11.571C36.522 11.767 36.299 12.0227 36.1428 12.3381C35.9865 12.6534 35.9084 12.9915 35.9084 13.3523V13.9318C35.9084 14.4261 35.9936 14.8452 36.1641 15.1889C36.3374 15.5298 36.5774 15.7898 36.8842 15.9688C37.1911 16.1449 37.5476 16.233 37.9538 16.233C38.218 16.233 38.4567 16.196 38.6697 16.1222C38.8857 16.0455 39.0717 15.9318 39.228 15.7812C39.3842 15.6278 39.505 15.4375 39.5902 15.2102L40.5618 15.483C40.4595 15.8125 40.2876 16.1023 40.0462 16.3523C39.8047 16.5994 39.5064 16.7926 39.1513 16.9318C38.7962 17.0682 38.397 17.1364 37.9538 17.1364ZM42.1939 17V10.4545H43.1655V11.4773H43.2507C43.3871 11.1278 43.6072 10.8565 43.9112 10.6634C44.2152 10.4673 44.5803 10.3693 45.0064 10.3693C45.4382 10.3693 45.7976 10.4673 46.0845 10.6634C46.3743 10.8565 46.6001 11.1278 46.7621 11.4773H46.8303C46.9979 11.1392 47.2493 10.8707 47.5845 10.6719C47.9197 10.4702 48.3217 10.3693 48.7905 10.3693C49.3757 10.3693 49.8544 10.5526 50.2266 10.919C50.5987 11.2827 50.7848 11.8494 50.7848 12.6193V17H49.7791V12.6193C49.7791 12.1364 49.647 11.7912 49.3828 11.5838C49.1186 11.3764 48.8075 11.2727 48.4496 11.2727C47.9893 11.2727 47.6328 11.4119 47.38 11.6903C47.1271 11.9659 47.0007 12.3153 47.0007 12.7386V17H45.978V12.517C45.978 12.1449 45.8572 11.8452 45.6158 11.6179C45.3743 11.3878 45.0632 11.2727 44.6825 11.2727C44.4212 11.2727 44.1768 11.3423 43.9496 11.4815C43.7251 11.6207 43.5433 11.8139 43.4041 12.0611C43.2678 12.3054 43.1996 12.5881 43.1996 12.9091V17H42.1939ZM53.6293 13.0625V17H52.6236V10.4545H53.5952V11.4773H53.6804C53.8338 11.1449 54.0668 10.8778 54.3793 10.6761C54.6918 10.4716 55.0952 10.3693 55.5895 10.3693C56.0327 10.3693 56.4205 10.4602 56.7528 10.642C57.0852 10.821 57.3438 11.0938 57.5284 11.4602C57.7131 11.8239 57.8054 12.2841 57.8054 12.8409V17H56.7997V12.9091C56.7997 12.3949 56.6662 11.9943 56.3991 11.7074C56.1321 11.4176 55.7656 11.2727 55.2997 11.2727C54.9787 11.2727 54.6918 11.3423 54.4389 11.4815C54.1889 11.6207 53.9915 11.8239 53.8466 12.0909C53.7017 12.358 53.6293 12.6818 53.6293 13.0625ZM61.5692 17.1534C61.1545 17.1534 60.7781 17.0753 60.44 16.919C60.1019 16.7599 59.8335 16.5312 59.6346 16.233C59.4357 15.9318 59.3363 15.5682 59.3363 15.142C59.3363 14.767 59.4102 14.4631 59.5579 14.2301C59.7056 13.9943 59.9031 13.8097 60.1502 13.6761C60.3974 13.5426 60.6701 13.4432 60.9684 13.3778C61.2695 13.3097 61.5721 13.2557 61.8761 13.2159C62.2738 13.1648 62.5962 13.1264 62.8434 13.1009C63.0934 13.0724 63.2752 13.0256 63.3888 12.9602C63.5053 12.8949 63.5636 12.7812 63.5636 12.6193V12.5852C63.5636 12.1648 63.4485 11.8381 63.2184 11.6051C62.9911 11.3722 62.646 11.2557 62.1829 11.2557C61.7028 11.2557 61.3263 11.3608 61.0536 11.571C60.7809 11.7812 60.5891 12.0057 60.4783 12.2443L59.5238 11.9034C59.6942 11.5057 59.9215 11.196 60.2056 10.9744C60.4925 10.75 60.805 10.5937 61.1431 10.5057C61.484 10.4148 61.8192 10.3693 62.1488 10.3693C62.359 10.3693 62.6005 10.3949 62.8732 10.446C63.1488 10.4943 63.4144 10.5952 63.6701 10.7486C63.9286 10.902 64.1431 11.1335 64.3136 11.4432C64.484 11.7528 64.5692 12.1676 64.5692 12.6875V17H63.5636V16.1136H63.5124C63.4442 16.2557 63.3306 16.4077 63.1715 16.5696C63.0124 16.7315 62.8008 16.8693 62.5366 16.983C62.2724 17.0966 61.9499 17.1534 61.5692 17.1534ZM61.7227 16.25C62.1204 16.25 62.4556 16.1719 62.7283 16.0156C63.0039 15.8594 63.2113 15.6577 63.3505 15.4105C63.4925 15.1634 63.5636 14.9034 63.5636 14.6307V13.7102C63.521 13.7614 63.4272 13.8082 63.2823 13.8509C63.1403 13.8906 62.9755 13.9261 62.788 13.9574C62.6033 13.9858 62.4229 14.0114 62.2468 14.0341C62.0735 14.054 61.9329 14.071 61.8249 14.0852C61.5636 14.1193 61.3192 14.1747 61.092 14.2514C60.8675 14.3253 60.6857 14.4375 60.5465 14.5881C60.4102 14.7358 60.342 14.9375 60.342 15.1932C60.342 15.5426 60.4712 15.8068 60.7298 15.9858C60.9911 16.1619 61.3221 16.25 61.7227 16.25ZM71.0412 11.9205L70.1378 12.1761C70.081 12.0256 69.9972 11.8793 69.8864 11.7372C69.7784 11.5923 69.6307 11.473 69.4432 11.3793C69.2557 11.2855 69.0156 11.2386 68.723 11.2386C68.3224 11.2386 67.9886 11.331 67.7216 11.5156C67.4574 11.6974 67.3253 11.929 67.3253 12.2102C67.3253 12.4602 67.4162 12.6577 67.598 12.8026C67.7798 12.9474 68.0639 13.0682 68.4503 13.1648L69.4219 13.4034C70.0071 13.5455 70.4432 13.7628 70.7301 14.0554C71.017 14.3452 71.1605 14.7187 71.1605 15.1761C71.1605 15.5511 71.0526 15.8864 70.8366 16.1818C70.6236 16.4773 70.3253 16.7102 69.9418 16.8807C69.5582 17.0511 69.1122 17.1364 68.6037 17.1364C67.9361 17.1364 67.3835 16.9915 66.946 16.7017C66.5085 16.4119 66.2315 15.9886 66.1151 15.4318L67.0696 15.1932C67.1605 15.5455 67.3324 15.8097 67.5852 15.9858C67.8409 16.1619 68.1747 16.25 68.5866 16.25C69.0554 16.25 69.4276 16.1506 69.7031 15.9517C69.9815 15.75 70.1207 15.5085 70.1207 15.2273C70.1207 15 70.0412 14.8097 69.8821 14.6562C69.723 14.5 69.4787 14.3835 69.1491 14.3068L68.0582 14.0511C67.4588 13.9091 67.0185 13.6889 66.7372 13.3906C66.4588 13.0895 66.3196 12.7131 66.3196 12.2614C66.3196 11.892 66.4233 11.5653 66.6307 11.2812C66.8409 10.9972 67.1264 10.7741 67.4872 10.6122C67.8509 10.4503 68.2628 10.3693 68.723 10.3693C69.3707 10.3693 69.8793 10.5114 70.2486 10.7955C70.6207 11.0795 70.8849 11.4545 71.0412 11.9205ZM73.68 13.0625V17H72.6744V8.27273H73.68V11.4773H73.7653C73.9187 11.1392 74.1488 10.8707 74.4556 10.6719C74.7653 10.4702 75.1772 10.3693 75.6914 10.3693C76.1374 10.3693 76.5281 10.4588 76.8633 10.6378C77.1985 10.8139 77.4585 11.0852 77.6431 11.4517C77.8306 11.8153 77.9244 12.2784 77.9244 12.8409V17H76.9187V12.9091C76.9187 12.3892 76.7837 11.9872 76.5138 11.7031C76.2468 11.4162 75.8761 11.2727 75.4016 11.2727C75.0721 11.2727 74.7766 11.3423 74.5153 11.4815C74.2567 11.6207 74.0522 11.8239 73.9016 12.0909C73.7539 12.358 73.68 12.6818 73.68 13.0625ZM82.4233 17.1364C81.8324 17.1364 81.3139 16.9957 80.8679 16.7145C80.4247 16.4332 80.0781 16.0398 79.8281 15.5341C79.581 15.0284 79.4574 14.4375 79.4574 13.7614C79.4574 13.0795 79.581 12.4844 79.8281 11.9759C80.0781 11.4673 80.4247 11.0724 80.8679 10.7912C81.3139 10.5099 81.8324 10.3693 82.4233 10.3693C83.0142 10.3693 83.5313 10.5099 83.9744 10.7912C84.4205 11.0724 84.767 11.4673 85.0142 11.9759C85.2642 12.4844 85.3892 13.0795 85.3892 13.7614C85.3892 14.4375 85.2642 15.0284 85.0142 15.5341C84.767 16.0398 84.4205 16.4332 83.9744 16.7145C83.5313 16.9957 83.0142 17.1364 82.4233 17.1364ZM82.4233 16.233C82.8722 16.233 83.2415 16.1179 83.5312 15.8878C83.821 15.6577 84.0355 15.3551 84.1747 14.9801C84.3139 14.6051 84.3835 14.1989 84.3835 13.7614C84.3835 13.3239 84.3139 12.9162 84.1747 12.5384C84.0355 12.1605 83.821 11.8551 83.5312 11.6222C83.2415 11.3892 82.8722 11.2727 82.4233 11.2727C81.9744 11.2727 81.6051 11.3892 81.3153 11.6222C81.0256 11.8551 80.8111 12.1605 80.6719 12.5384C80.5327 12.9162 80.4631 13.3239 80.4631 13.7614C80.4631 14.1989 80.5327 14.6051 80.6719 14.9801C80.8111 15.3551 81.0256 15.6577 81.3153 15.8878C81.6051 16.1179 81.9744 16.233 82.4233 16.233ZM86.9244 19.4545V10.4545H87.896V11.4943H88.0153C88.0891 11.3807 88.1914 11.2358 88.3221 11.0597C88.4556 10.8807 88.646 10.7216 88.8931 10.5824C89.1431 10.4403 89.4812 10.3693 89.9073 10.3693C90.4585 10.3693 90.9442 10.5071 91.3647 10.7827C91.7852 11.0582 92.1133 11.4489 92.3491 11.9545C92.5849 12.4602 92.7028 13.0568 92.7028 13.7443C92.7028 14.4375 92.5849 15.0384 92.3491 15.5469C92.1133 16.0526 91.7866 16.4446 91.369 16.723C90.9513 16.9986 90.4698 17.1364 89.9244 17.1364C89.5039 17.1364 89.1673 17.0668 88.9144 16.9276C88.6616 16.7855 88.467 16.625 88.3306 16.446C88.1942 16.2642 88.0891 16.1136 88.0153 15.9943H87.93V19.4545H86.9244ZM87.913 13.7273C87.913 14.2216 87.9854 14.6577 88.1303 15.0355C88.2752 15.4105 88.4869 15.7045 88.7653 15.9176C89.0437 16.1278 89.3846 16.233 89.788 16.233C90.2085 16.233 90.5593 16.1222 90.8406 15.9006C91.1246 15.6761 91.3377 15.375 91.4798 14.9972C91.6246 14.6165 91.6971 14.1932 91.6971 13.7273C91.6971 13.267 91.6261 12.8523 91.484 12.483C91.3448 12.1108 91.1332 11.8168 90.8491 11.6009C90.5678 11.3821 90.2141 11.2727 89.788 11.2727C89.3789 11.2727 89.0352 11.3764 88.7567 11.5838C88.4783 11.7884 88.2681 12.0753 88.1261 12.4446C87.984 12.8111 87.913 13.2386 87.913 13.7273Z" fill="white"/>
<path d="M5.89062 6.09375H15.6777C17.106 6.09375 18.2967 7.18725 18.418 8.61035L19.3232 19.2305C19.4597 20.8353 18.1937 22.2138 16.583 22.2139H4.98535C3.37459 22.2139 2.1086 20.8354 2.24512 19.2305L3.15039 8.61035C3.27168 7.18725 4.46237 6.09375 5.89062 6.09375Z" stroke="#22D3EE" stroke-width="0.5"/>
<rect x="5.21875" y="12.2812" width="0.6875" height="3.125" rx="0.34375" stroke="#22D3EE" stroke-width="0.6875"/>
<rect x="7.8125" y="10.5937" width="0.6875" height="6.5625" rx="0.34375" stroke="#22D3EE" stroke-width="0.6875"/>
<rect x="10.75" y="8.15625" width="0.6875" height="11.875" rx="0.34375" stroke="#22D3EE" stroke-width="0.6875"/>
<rect x="13.25" y="11.6562" width="0.6875" height="4.4375" rx="0.34375" stroke="#22D3EE" stroke-width="0.6875"/>
<rect x="15.6562" y="10.5" width="0.6875" height="7.0625" rx="0.34375" stroke="#22D3EE" stroke-width="0.6875"/>
<mask id="path-8-inside-1_24_3" fill="white">
<path d="M10.7812 1.40625C14.0432 1.40625 16.6875 4.05057 16.6875 7.3125C16.6875 7.6922 16.3797 8 16 8C15.6203 8 15.3125 7.6922 15.3125 7.3125C15.3125 4.80996 13.2838 2.78125 10.7812 2.78125C8.27871 2.78125 6.25 4.80996 6.25 7.3125C6.25 7.6922 5.9422 8 5.5625 8C5.1828 8 4.875 7.6922 4.875 7.3125C4.875 4.05057 7.51932 1.40625 10.7812 1.40625Z"/>
</mask>
<path d="M10.7812 1.40625V6.40625C11.2818 6.40625 11.6875 6.81199 11.6875 7.3125H16.6875H21.6875C21.6875 1.28914 16.8046 -3.59375 10.7812 -3.59375V1.40625ZM16.6875 7.3125H11.6875C11.6875 4.93077 13.6183 3 16 3V8V13C19.1411 13 21.6875 10.4536 21.6875 7.3125H16.6875ZM16 8V3C18.3817 3 20.3125 4.93077 20.3125 7.3125H15.3125H10.3125C10.3125 10.4536 12.8589 13 16 13V8ZM15.3125 7.3125H20.3125C20.3125 2.04854 16.0452 -2.21875 10.7812 -2.21875V2.78125V7.78125C10.5224 7.78125 10.3125 7.57138 10.3125 7.3125H15.3125ZM10.7812 2.78125V-2.21875C5.51729 -2.21875 1.25 2.04854 1.25 7.3125H6.25H11.25C11.25 7.57138 11.0401 7.78125 10.7812 7.78125V2.78125ZM6.25 7.3125H1.25C1.25 4.93077 3.18077 3 5.5625 3V8V13C8.70362 13 11.25 10.4536 11.25 7.3125H6.25ZM5.5625 8V3C7.94423 3 9.875 4.93077 9.875 7.3125H4.875H-0.125C-0.125 10.4536 2.42138 13 5.5625 13V8ZM4.875 7.3125H9.875C9.875 6.81199 10.2807 6.40625 10.7812 6.40625V1.40625V-3.59375C4.75789 -3.59375 -0.125 1.28914 -0.125 7.3125H4.875Z" fill="#22D3EE" mask="url(#path-8-inside-1_24_3)"/>
</g>
<defs>
<clipPath id="clip0_24_3">
<rect width="102" height="24" fill="white"/>
</clipPath>
</defs>
</svg>
