<svg width="397" height="86" viewBox="0 0 397 86" fill="none" xmlns="http://www.w3.org/2000/svg">
<g clip-path="url(#clip0_24_3)">
<path d="M105.857 66V31.0909H118.948C121.63 31.0909 123.88 31.5568 125.698 32.4886C127.528 33.4205 128.908 34.7273 129.84 36.4091C130.783 38.0795 131.255 40.0284 131.255 42.2557C131.255 44.4943 130.778 46.4375 129.823 48.0852C128.88 49.7216 127.488 50.9886 125.647 51.8864C123.806 52.7727 121.545 53.2159 118.863 53.2159H109.539V47.9659H118.011C119.579 47.9659 120.863 47.75 121.863 47.3182C122.863 46.875 123.602 46.233 124.079 45.392C124.567 44.5398 124.812 43.4943 124.812 42.2557C124.812 41.017 124.567 39.9602 124.079 39.0852C123.59 38.1989 122.846 37.5284 121.846 37.0739C120.846 36.608 119.556 36.375 117.977 36.375H112.181V66H105.857ZM123.891 50.1818L132.533 66H125.477L116.988 50.1818H123.891ZM148.019 66.5114C145.394 66.5114 143.127 65.9659 141.218 64.875C139.32 63.7727 137.86 62.2159 136.837 60.2045C135.815 58.1818 135.303 55.8011 135.303 53.0625C135.303 50.3693 135.815 48.0057 136.837 45.9716C137.871 43.9261 139.315 42.3352 141.167 41.1989C143.019 40.0511 145.195 39.4773 147.695 39.4773C149.309 39.4773 150.832 39.7386 152.263 40.2614C153.707 40.7727 154.979 41.5682 156.082 42.6477C157.195 43.7273 158.07 45.1023 158.707 46.7727C159.343 48.4318 159.661 50.4091 159.661 52.7045V54.5966H138.201V50.4375H153.746C153.735 49.2557 153.479 48.2045 152.979 47.2841C152.479 46.3523 151.781 45.6193 150.883 45.0852C149.996 44.5511 148.962 44.2841 147.781 44.2841C146.519 44.2841 145.411 44.5909 144.457 45.2045C143.502 45.8068 142.758 46.6023 142.224 47.5909C141.701 48.5682 141.434 49.642 141.423 50.8125V54.4432C141.423 55.9659 141.701 57.2727 142.258 58.3636C142.815 59.4432 143.593 60.2727 144.593 60.8523C145.593 61.4205 146.763 61.7045 148.104 61.7045C149.002 61.7045 149.815 61.5795 150.542 61.3295C151.269 61.0682 151.9 60.6875 152.434 60.1875C152.968 59.6875 153.371 59.0682 153.644 58.3295L159.406 58.9773C159.042 60.5 158.349 61.8295 157.326 62.9659C156.315 64.0909 155.019 64.9659 153.44 65.5909C151.86 66.2045 150.053 66.5114 148.019 66.5114ZM164.881 66V39.8182H170.779V44.267H171.086C171.631 42.767 172.535 41.5966 173.796 40.7557C175.058 39.9034 176.563 39.4773 178.313 39.4773C180.086 39.4773 181.58 39.9091 182.796 40.7727C184.023 41.625 184.887 42.7898 185.387 44.267H185.66C186.239 42.8125 187.217 41.6534 188.592 40.7898C189.978 39.9148 191.62 39.4773 193.518 39.4773C195.927 39.4773 197.893 40.2386 199.415 41.7614C200.938 43.2841 201.7 45.5057 201.7 48.4261V66H195.512V49.3807C195.512 47.7557 195.08 46.5682 194.217 45.8182C193.353 45.0568 192.296 44.6761 191.046 44.6761C189.558 44.6761 188.393 45.142 187.552 46.0739C186.722 46.9943 186.308 48.1932 186.308 49.6705V66H180.256V49.125C180.256 47.7727 179.847 46.6932 179.029 45.8864C178.222 45.0795 177.165 44.6761 175.859 44.6761C174.972 44.6761 174.165 44.9034 173.438 45.358C172.711 45.8011 172.131 46.4318 171.7 47.25C171.268 48.0568 171.052 49 171.052 50.0795V66H164.881ZM214.13 50.6591V66H207.96V39.8182H213.857V44.267H214.164C214.766 42.8011 215.727 41.6364 217.045 40.7727C218.374 39.9091 220.016 39.4773 221.971 39.4773C223.778 39.4773 225.352 39.8636 226.692 40.6364C228.045 41.4091 229.09 42.5284 229.829 43.9943C230.579 45.4602 230.948 47.2386 230.937 49.3295V66H224.766V50.2841C224.766 48.5341 224.312 47.1648 223.403 46.1761C222.505 45.1875 221.261 44.6932 219.67 44.6932C218.59 44.6932 217.63 44.9318 216.789 45.4091C215.96 45.875 215.306 46.5511 214.829 47.4375C214.363 48.3239 214.13 49.3977 214.13 50.6591ZM244.744 66.5284C243.085 66.5284 241.59 66.233 240.261 65.642C238.942 65.0398 237.897 64.1534 237.124 62.983C236.363 61.8125 235.982 60.3693 235.982 58.6534C235.982 57.1761 236.255 55.9545 236.8 54.9886C237.346 54.0227 238.09 53.25 239.033 52.6705C239.977 52.0909 241.039 51.6534 242.221 51.358C243.414 51.0511 244.647 50.8295 245.92 50.6932C247.454 50.5341 248.698 50.392 249.653 50.267C250.607 50.1307 251.3 49.9261 251.732 49.6534C252.175 49.3693 252.397 48.9318 252.397 48.3409V48.2386C252.397 46.9545 252.016 45.9602 251.255 45.2557C250.494 44.5511 249.397 44.1989 247.965 44.1989C246.454 44.1989 245.255 44.5284 244.369 45.1875C243.494 45.8466 242.903 46.625 242.596 47.5227L236.835 46.7045C237.289 45.1136 238.039 43.7841 239.085 42.7159C240.13 41.6364 241.408 40.8295 242.92 40.2955C244.431 39.75 246.102 39.4773 247.931 39.4773C249.192 39.4773 250.448 39.625 251.698 39.9205C252.948 40.2159 254.09 40.7045 255.124 41.3864C256.158 42.0568 256.988 42.9716 257.613 44.1307C258.249 45.2898 258.567 46.7386 258.567 48.4773V66H252.636V62.4034H252.431C252.056 63.1307 251.528 63.8125 250.846 64.4489C250.175 65.0739 249.329 65.5795 248.306 65.9659C247.295 66.3409 246.107 66.5284 244.744 66.5284ZM246.346 61.9943C247.585 61.9943 248.658 61.75 249.567 61.2614C250.477 60.7614 251.175 60.1023 251.664 59.2841C252.164 58.4659 252.414 57.5739 252.414 56.608V53.5227C252.221 53.6818 251.891 53.8295 251.425 53.9659C250.971 54.1023 250.46 54.2216 249.891 54.3239C249.323 54.4261 248.761 54.517 248.204 54.5966C247.647 54.6761 247.164 54.7443 246.755 54.8011C245.835 54.9261 245.011 55.1307 244.283 55.4148C243.556 55.6989 242.982 56.0966 242.562 56.608C242.141 57.108 241.931 57.7557 241.931 58.5511C241.931 59.6875 242.346 60.5455 243.175 61.125C244.005 61.7045 245.062 61.9943 246.346 61.9943ZM285.465 46.7386L279.84 47.3523C279.681 46.7841 279.403 46.25 279.005 45.75C278.619 45.25 278.096 44.8466 277.437 44.5398C276.778 44.233 275.971 44.0795 275.016 44.0795C273.732 44.0795 272.653 44.358 271.778 44.9148C270.914 45.4716 270.488 46.1932 270.499 47.0795C270.488 47.8409 270.766 48.4602 271.335 48.9375C271.914 49.4148 272.869 49.8068 274.198 50.1136L278.664 51.0682C281.141 51.6023 282.982 52.4489 284.187 53.608C285.403 54.767 286.016 56.2841 286.028 58.1591C286.016 59.8068 285.533 61.2614 284.579 62.5227C283.636 63.7727 282.323 64.75 280.641 65.4545C278.96 66.1591 277.028 66.5114 274.846 66.5114C271.641 66.5114 269.062 65.8409 267.107 64.5C265.153 63.1477 263.988 61.267 263.613 58.858L269.63 58.2784C269.903 59.4602 270.482 60.3523 271.369 60.9545C272.255 61.5568 273.408 61.858 274.829 61.858C276.295 61.858 277.471 61.5568 278.357 60.9545C279.255 60.3523 279.704 59.608 279.704 58.7216C279.704 57.9716 279.414 57.3523 278.835 56.8636C278.266 56.375 277.38 56 276.175 55.7386L271.71 54.8011C269.198 54.2784 267.34 53.3977 266.136 52.1591C264.931 50.9091 264.335 49.3295 264.346 47.4205C264.335 45.8068 264.772 44.4091 265.658 43.2273C266.556 42.0341 267.8 41.1136 269.391 40.4659C270.994 39.8068 272.84 39.4773 274.931 39.4773C277.999 39.4773 280.414 40.1307 282.175 41.4375C283.948 42.7443 285.045 44.5114 285.465 46.7386ZM297.286 50.6591V66H291.116V31.0909H297.15V44.267H297.457C298.07 42.7898 299.019 41.625 300.303 40.7727C301.599 39.9091 303.246 39.4773 305.246 39.4773C307.065 39.4773 308.65 39.858 310.002 40.6193C311.354 41.3807 312.4 42.4943 313.138 43.9602C313.888 45.4261 314.263 47.2159 314.263 49.3295V66H308.093V50.2841C308.093 48.5227 307.638 47.1534 306.729 46.1761C305.832 45.1875 304.57 44.6932 302.945 44.6932C301.854 44.6932 300.877 44.9318 300.013 45.4091C299.161 45.875 298.491 46.5511 298.002 47.4375C297.525 48.3239 297.286 49.3977 297.286 50.6591ZM331.974 66.5114C329.417 66.5114 327.201 65.9489 325.326 64.8239C323.451 63.6989 321.996 62.125 320.962 60.1023C319.94 58.0795 319.428 55.7159 319.428 53.0114C319.428 50.3068 319.94 47.9375 320.962 45.9034C321.996 43.8693 323.451 42.2898 325.326 41.1648C327.201 40.0398 329.417 39.4773 331.974 39.4773C334.531 39.4773 336.746 40.0398 338.621 41.1648C340.496 42.2898 341.945 43.8693 342.968 45.9034C344.002 47.9375 344.519 50.3068 344.519 53.0114C344.519 55.7159 344.002 58.0795 342.968 60.1023C341.945 62.125 340.496 63.6989 338.621 64.8239C336.746 65.9489 334.531 66.5114 331.974 66.5114ZM332.008 61.5682C333.394 61.5682 334.553 61.1875 335.485 60.4261C336.417 59.6534 337.11 58.6193 337.565 57.3239C338.031 56.0284 338.263 54.5852 338.263 52.9943C338.263 51.392 338.031 49.9432 337.565 48.6477C337.11 47.3409 336.417 46.3011 335.485 45.5284C334.553 44.7557 333.394 44.3693 332.008 44.3693C330.587 44.3693 329.406 44.7557 328.462 45.5284C327.531 46.3011 326.832 47.3409 326.366 48.6477C325.911 49.9432 325.684 51.392 325.684 52.9943C325.684 54.5852 325.911 56.0284 326.366 57.3239C326.832 58.6193 327.531 59.6534 328.462 60.4261C329.406 61.1875 330.587 61.5682 332.008 61.5682ZM349.756 75.8182V39.8182H355.825V44.1477H356.183C356.501 43.5114 356.95 42.8352 357.529 42.1193C358.109 41.392 358.893 40.7727 359.881 40.2614C360.87 39.7386 362.131 39.4773 363.665 39.4773C365.688 39.4773 367.512 39.9943 369.137 41.0284C370.773 42.0511 372.069 43.5682 373.023 45.5795C373.989 47.5795 374.472 50.0341 374.472 52.9432C374.472 55.8182 374.001 58.2614 373.058 60.2727C372.114 62.2841 370.83 63.8182 369.205 64.875C367.58 65.9318 365.739 66.4602 363.683 66.4602C362.183 66.4602 360.938 66.2102 359.95 65.7102C358.961 65.2102 358.165 64.608 357.563 63.9034C356.972 63.1875 356.512 62.5114 356.183 61.875H355.927V75.8182H349.756ZM355.808 52.9091C355.808 54.6023 356.046 56.0852 356.523 57.358C357.012 58.6307 357.711 59.625 358.62 60.3409C359.54 61.0455 360.654 61.3977 361.961 61.3977C363.325 61.3977 364.467 61.0341 365.387 60.3068C366.308 59.5682 367.001 58.5625 367.467 57.2898C367.944 56.0057 368.183 54.5455 368.183 52.9091C368.183 51.2841 367.95 49.8409 367.484 48.5795C367.018 47.3182 366.325 46.3295 365.404 45.6136C364.484 44.8977 363.336 44.5398 361.961 44.5398C360.643 44.5398 359.523 44.8864 358.603 45.5795C357.683 46.2727 356.984 47.2443 356.506 48.4943C356.04 49.7443 355.808 51.2159 355.808 52.9091Z" fill="white"/>
<path d="M32.4586 18.9712H72.5065C76.1418 18.9714 79.1722 21.7543 79.4811 25.3765L83.1862 68.8491C83.5344 72.9347 80.3119 76.4436 76.2115 76.4438H28.7535C24.653 76.4438 21.4307 72.9348 21.7789 68.8491L25.484 25.3765C25.7929 21.7542 28.8232 18.9712 32.4586 18.9712Z" stroke="#22D3EE" stroke-width="2"/>
<rect x="32.6749" y="41.9668" width="2.46017" height="11.2013" rx="1.23009" stroke="#22D3EE" stroke-width="2.46017"/>
<rect x="41.9565" y="35.9199" width="2.46017" height="23.519" rx="1.23009" stroke="#22D3EE" stroke-width="2.46017"/>
<rect x="52.4682" y="27.1858" width="2.46017" height="42.5555" rx="1.23009" stroke="#22D3EE" stroke-width="2.46017"/>
<rect x="61.4143" y="39.7274" width="2.46017" height="15.9044" rx="1.23009" stroke="#22D3EE" stroke-width="2.46017"/>
<rect x="70.0249" y="35.5842" width="2.46017" height="25.3107" rx="1.23009" stroke="#22D3EE" stroke-width="2.46017"/>
<mask id="path-8-inside-1_24_3" fill="white">
<path d="M52.58 3C64.2526 3 73.7151 12.4755 73.7151 24.1641C73.7151 25.5246 72.6136 26.6276 71.2549 26.6276C69.8962 26.6276 68.7947 25.5246 68.7947 24.1641C68.7947 15.1966 61.5351 7.92708 52.58 7.92708C43.6248 7.92708 36.3652 15.1966 36.3652 24.1641C36.3652 25.5246 35.2637 26.6276 33.905 26.6276C32.5463 26.6276 31.4449 25.5246 31.4449 24.1641C31.4449 12.4755 40.9074 3 52.58 3Z"/>
</mask>
<path d="M52.58 3V8C61.4847 8 68.7151 15.2304 68.7151 24.1641H73.7151H78.7151C78.7151 9.7205 67.0204 -2 52.58 -2V3ZM73.7151 24.1641H68.7151C68.7151 22.7697 69.8457 21.6276 71.2549 21.6276V26.6276V31.6276C75.3815 31.6276 78.7151 28.2796 78.7151 24.1641H73.7151ZM71.2549 26.6276V21.6276C72.6641 21.6276 73.7947 22.7697 73.7947 24.1641H68.7947H63.7947C63.7947 28.2796 67.1283 31.6276 71.2549 31.6276V26.6276ZM68.7947 24.1641H73.7947C73.7947 12.4417 64.303 2.92708 52.58 2.92708V7.92708V12.9271C58.7673 12.9271 63.7947 17.9516 63.7947 24.1641H68.7947ZM52.58 7.92708V2.92708C40.8569 2.92708 31.3652 12.4417 31.3652 24.1641H36.3652H41.3652C41.3652 17.9516 46.3927 12.9271 52.58 12.9271V7.92708ZM36.3652 24.1641H31.3652C31.3652 22.7697 32.4959 21.6276 33.905 21.6276V26.6276V31.6276C38.0316 31.6276 41.3652 28.2796 41.3652 24.1641H36.3652ZM33.905 26.6276V21.6276C35.3142 21.6276 36.4449 22.7697 36.4449 24.1641H31.4449H26.4449C26.4449 28.2796 29.7784 31.6276 33.905 31.6276V26.6276ZM31.4449 24.1641H36.4449C36.4449 15.2304 43.6752 8 52.58 8V3V-2C38.1395 -2 26.4449 9.7205 26.4449 24.1641H31.4449Z" fill="#22D3EE" mask="url(#path-8-inside-1_24_3)"/>
</g>
<defs>
<clipPath id="clip0_24_3">
<rect width="397" height="86" fill="white"/>
</clipPath>
</defs>
</svg>
